<svg xmlns="http://www.w3.org/2000/svg" viewBox="0 0 65 42" enable-background="new 0 0 65 42"><path fill="#363C3C" d="M59.4 28.5c.5-1.5 1.7-5.1 1.7-7.5 0-10.2-8.3-18.5-18.6-18.5-2.3 0-4.5.4-6.6 1.2-3.4-2.3-7.5-3.7-12-3.7C12.2 0 2.8 9.4 2.8 21c0 3.5.9 6.8 2.4 9.7l-.2-.2-5 10.8 10.1-4.4c3.7 3.2 8.5 5.1 13.8 5.1 4.5 0 8.6-1.4 12-3.7 2 .8 4.3 1.2 6.6 1.2 4.1 0 8.1-1.4 11.3-3.8L65 40.5l-5.6-12zm-43.2-4.6c-1.6 0-3-1.3-3-2.9s1.3-2.9 3-2.9c1.6 0 3 1.3 3 2.9s-1.4 2.9-3 2.9zm7.7 0c-1.6 0-3-1.3-3-2.9s1.3-2.9 3-2.9c1.6 0 3 1.3 3 2.9s-1.4 2.9-3 2.9zm7.7 0c-1.6 0-3-1.3-3-2.9s1.3-2.9 3-2.9c1.6 0 3 1.3 3 2.9s-1.3 2.9-3 2.9zm21.7 7.8l-.8.7c-2.8 2.4-6.3 3.7-10 3.7-1.2 0-2.4-.1-3.5-.4 3.7-3.8 6.1-9 6.1-14.7S42.7 10.1 39 6.3c1.1-.3 2.3-.4 3.5-.4 8.4 0 15.2 6.8 15.2 15.1 0 2-1.2 5.8-1.7 7l-.2.6 2.4 5.2-4.9-2.1z"/></svg>