<svg width="30" height="30" fill="#fff" viewBox="0 0 27 30" xmlns="http://www.w3.org/2000/svg"><path d="M24.668 21.464a1.478 1.478 0 0 1-2.016.54 1.477 1.477 0 1 1 2.016-.54m-9.73 5.002c0 .814-.663 1.476-1.477 1.476a1.478 1.478 0 0 1-1.474-1.476 1.478 1.478 0 0 1 2.953 0M4.95 21.12c-.102.38-.347.698-.688.895-.34.197-.74.25-1.12.147a1.477 1.477 0 0 1-.356-2.704 1.477 1.477 0 0 1 2.164 1.66m-.154-11.112a1.478 1.478 0 0 1-2.016.54 1.477 1.477 0 0 1 .74-2.753 1.478 1.478 0 0 1 1.28 2.214m17.16-1.13c.102-.382.347-.7.688-.897a1.466 1.466 0 0 1 1.12-.148c.38.102.7.346.896.688.197.34.25.74.148 1.12a1.478 1.478 0 1 1-2.85-.764m3.188 8.805a3.523 3.523 0 0 0-4.044.375l-5.21-3.01c0-.03-.004-.06-.006-.092l5.22-3.014a3.54 3.54 0 0 0 2.282.835c.596 0 1.2-.152 1.752-.47a3.494 3.494 0 0 0 1.64-2.136 3.495 3.495 0 0 0-.353-2.67 3.494 3.494 0 0 0-2.135-1.638 3.495 3.495 0 0 0-2.668.352 3.494 3.494 0 0 0-1.64 2.136 3.498 3.498 0 0 0-.057 1.55l-5.36 3.05a.755.755 0 0 0-.097-.003V6.84c1.413-.485 2.415-1.786 2.415-3.31 0-1.94-1.54-3.518-3.478-3.518-1.94 0-3.576 1.578-3.576 3.517 0 1.526 1.03 2.83 2.285 3.313v6.113L6.9 9.91c.258-1.42-.32-2.877-1.64-3.662h.01c-1.68-.942-3.83-.405-4.8 1.275a3.514 3.514 0 0 0 1.29 4.797c.552.32 1.157.467 1.753.467a3.54 3.54 0 0 0 2.292-.845l5.295 3.056-5.298 3.06a3.522 3.522 0 0 0-4.034-.367A3.52 3.52 0 0 0 .48 22.497a3.494 3.494 0 0 0 2.136 1.64 3.496 3.496 0 0 0 2.668-.35 3.494 3.494 0 0 0 1.64-2.138 3.5 3.5 0 0 0 .057-1.553l5.176-3.032c.014.01-.036.017-.036.026v6.066c-1.257.487-2.254 1.787-2.254 3.31 0 1.94 1.617 3.518 3.556 3.518 1.94 0 3.458-1.578 3.458-3.517 0-1.53-.994-2.834-2.407-3.317v-5.996c.157-.02.147-.04.18-.06l5.24 3a3.536 3.536 0 0 0 3.48 4.148c1.217 0 2.407-.63 3.058-1.758a3.52 3.52 0 0 0-1.28-4.803"/></svg>