<?xml version="1.0" encoding="UTF-8" standalone="no"?>
<svg width="123px" height="141px" viewBox="0 0 123 141" version="1.1" xmlns="http://www.w3.org/2000/svg" xmlns:xlink="http://www.w3.org/1999/xlink">
    <!-- Generator: sketchtool 3.8.3 (29802) - http://www.bohemiancoding.com/sketch -->
    <title>681C89DC-9B4A-4109-9C8D-0E63AB749680</title>
    <desc>Created with sketchtool.</desc>
    <defs>
        <polygon id="path-1" points="105.118858 58.2415653 0 58.2415653 0 0.19959727 105.118858 0.19959727"></polygon>
    </defs>
    <g id="Page-1" stroke="none" stroke-width="1" fill="none" fill-rule="evenodd">
        <g id="alura-interna-forum-Login" transform="translate(-759.000000, -531.000000)">
            <g id="rocket" transform="translate(759.000000, 531.000000)">
                <path d="M28.9403017,48.1689264 C27.8520644,50.3553832 19.2253864,68.3883422 20.6402339,87.8814515 C20.6444034,87.9451747 20.7284881,87.9684713 20.7479458,87.9074889 C21.4407763,85.7552918 26.2162339,71.3819587 31.2460305,68.0848009 C31.266878,68.071097 31.2759119,68.049856 31.2682678,68.025189 C31.0702169,67.3913837 28.4552508,58.8079474 29.0368949,48.2086677 C29.0403695,48.1463149 28.9680983,48.1134256 28.9403017,48.1689264" id="Fill-1" fill="#91C2E4"></path>
                <path d="M27.9319102,52.9937262 C25.4962322,58.9809591 21.7193678,70.2010253 21.5338254,82.5674226 C23.4636051,77.5278142 26.6331136,70.4511214 30.0757237,67.6637487 C29.5246559,65.7219063 28.1257915,60.140994 27.9319102,52.9937262 L27.9319102,52.9937262 Z M21.4824017,89.0253844 L20.577622,88.9637169 C20.0501814,88.9041049 19.6394864,88.4813397 19.6005712,87.9571656 C18.1627915,68.153663 26.981961,49.7705694 28.0027915,47.7197811 L28.3745712,46.963326 L29.2529441,47.1469582 C29.7595373,47.2757748 30.1063,47.7458185 30.0785034,48.2638259 C29.5010288,58.7726598 32.1514356,67.3608925 32.2640119,67.721305 L32.4919441,68.445556 L31.8345542,68.9334148 C27.0472831,72.0716074 22.2704356,86.5751275 21.7416051,88.21891 L21.4824017,89.0253844 Z" id="Fill-3" fill="#747C81"></path>
                <path d="M67.7149051,48.1689264 C68.8031424,50.3553832 77.4298203,68.3883422 76.0149729,87.8814515 C76.0108034,87.9451747 75.9267186,87.9684713 75.907261,87.9074889 C75.2144305,85.7552918 70.4389729,71.3819587 65.4091763,68.0848009 C65.3883288,68.071097 65.3792949,68.049856 65.386939,68.025189 C65.5849898,67.3913837 68.1999559,58.8079474 67.6183119,48.2086677 C67.6148373,48.1463149 67.6871085,48.1134256 67.7149051,48.1689264" id="Fill-5" fill="#91C2E4"></path>
                <path d="M66.5791356,67.6638172 C70.0231356,70.4525604 73.1919492,77.5306235 75.1217288,82.5688615 C74.9361864,70.2058902 71.1586271,58.9837684 68.7229492,52.9937947 C68.527678,60.1259882 67.1308983,65.7110117 66.5791356,67.6638172 L66.5791356,67.6638172 Z M75.2301356,89.0638238 L74.9146441,88.2230897 C74.3844237,86.575196 69.6075763,72.0716759 64.8321186,68.9403352 L64.1879322,68.5182552 L64.3887627,67.7289107 C64.5041186,67.360961 67.1524407,58.7487465 66.5770508,48.2645796 C66.5492542,47.7479426 66.8939322,47.2792693 67.3970508,47.1483971 L68.2177458,46.9353015 L68.650678,47.7164237 C69.6624746,49.7487117 78.4920678,68.1503055 77.0549831,87.9551785 C77.0160678,88.4779822 76.6074576,88.9014326 76.0834915,88.9631002 L75.2301356,89.0638238 Z" id="Fill-7" fill="#747C81"></path>
                <path d="M49.8901898,1.69469251 C49.0375288,0.805309549 47.6178169,0.805309549 46.7651559,1.69469251 C40.3976475,8.33286056 17.4994949,35.9866409 33.6312576,76.0917828 C34.4491729,78.1240708 36.3442068,79.4464969 38.4317322,79.4464969 L48.3273254,79.4464969 L58.2236136,79.4464969 C60.3104441,79.4464969 62.2061729,78.1240708 63.0233932,76.0917828 C79.1558508,35.9866409 56.2576983,8.33286056 49.8901898,1.69469251" id="Fill-9" fill="#F2F2F2"></path>
                <path d="M48.3273949,2.0557217 C48.0223271,2.0557217 47.736022,2.17837158 47.5226831,2.40037472 C40.5130729,9.70866337 18.864378,36.5922847 34.6007339,75.7128015 C35.2615983,77.356584 36.7653949,78.4186361 38.4318017,78.4186361 L58.2229881,78.4186361 C59.8893949,78.4186361 61.3938864,77.3558988 62.0547508,75.7128015 C77.7897169,36.5943403 56.1424119,9.70934857 49.1328017,2.40105992 C48.9194627,2.17837158 48.6324627,2.0557217 48.3273949,2.0557217 M58.2229881,80.4742208 L38.4318017,80.4742208 C35.9050898,80.4742208 33.640361,78.9023837 32.6626153,76.470627 C16.4717847,36.2195387 38.7841237,8.51985024 46.0077678,0.988188064 C46.6185983,0.351642015 47.4427678,0.000137038977 48.3267,0.000137038977 L48.3273949,0.000137038977 C49.212022,0.000137038977 50.0361915,0.35095682 50.6477169,0.988188064 C57.871361,8.52053544 80.1830051,36.2222795 63.9928695,76.470627 C63.0144288,78.9023837 60.7497,80.4742208 58.2229881,80.4742208" id="Fill-11" fill="#747C81"></path>
                <path d="M50.9504915,94.5784093 L48.7351017,99.580332 C48.5731864,99.9455408 48.0818814,99.9455408 47.9199661,99.580332 L45.7045763,94.5784093 C43.8686102,90.4322951 42.9110169,85.8462857 42.9110169,81.1944976 L42.9110169,56.6569836 C42.9110169,55.4517258 43.6351186,54.380081 44.7122373,53.9888347 L44.7122373,53.9888347 C47.0554915,53.1385078 49.5995763,53.1385078 51.9428305,53.9888347 L51.9428305,53.9888347 C53.0206441,54.380081 53.7440508,55.4517258 53.7440508,56.6569836 L53.7440508,81.1944976 C53.7440508,85.8462857 52.7864576,90.4322951 50.9504915,94.5784093" id="Fill-13" fill="#91C2E4"></path>
                <path d="M48.3273949,54.3821366 C47.2245644,54.3821366 46.1217339,54.5726207 45.0724119,54.9535891 C44.4032085,55.1961481 43.9535983,55.881343 43.9535983,56.6569836 L43.9535983,81.1944976 C43.9535983,85.6845797 44.8896492,90.1698654 46.6602932,94.1666072 L48.3273949,97.9324383 L49.9944966,94.1666072 C51.7658356,90.1691802 52.7018864,85.6832093 52.7018864,81.1944976 L52.7018864,56.6569836 C52.7018864,55.881343 52.2522763,55.1961481 51.5837678,54.9535891 C50.5337508,54.5726207 49.4309203,54.3821366 48.3273949,54.3821366 M48.3273949,100.882202 L48.3260051,100.882202 C47.7381068,100.881517 47.2037169,100.532068 46.9646661,99.9907637 L44.7492763,94.9902114 C42.865361,90.7358364 41.8688525,85.9655096 41.8688525,81.1944976 L41.8688525,56.6569836 C41.8688525,55.0227938 42.8674458,53.5633287 44.3524797,53.0247655 C46.9153271,52.0942708 49.7394627,52.0935856 52.3037,53.0247655 C53.788039,53.5633287 54.7866322,55.023479 54.7866322,56.6569836 L54.7866322,81.1944976 C54.7866322,85.9641392 53.7901237,90.734466 51.9055136,94.9902114 L49.6908186,99.9914489 C49.4496831,100.532753 48.9152932,100.882202 48.3273949,100.882202" id="Fill-15" fill="#747C81"></path>
                <path d="M53.7439814,37.2557589 C53.7439814,40.4213593 51.3187271,42.9874141 48.3278119,42.9874141 C45.3362017,42.9874141 42.9109475,40.4213593 42.9109475,37.2557589 C42.9109475,34.0901585 45.3362017,31.5241037 48.3278119,31.5241037 C51.3187271,31.5241037 53.7439814,34.0901585 53.7439814,37.2557589" id="Fill-17" fill="#F68369"></path>
                <path d="M48.3273949,32.5523071 C45.9153441,32.5523071 43.9535983,34.6620222 43.9535983,37.2554848 C43.9535983,39.8489475 45.9153441,41.9593477 48.3273949,41.9593477 C50.7394458,41.9593477 52.7018864,39.8489475 52.7018864,37.2554848 C52.7018864,34.6620222 50.7394458,32.5523071 48.3273949,32.5523071 M48.3273949,44.0149324 C44.7659542,44.0149324 41.8688525,40.982945 41.8688525,37.2554848 C41.8688525,33.5287098 44.7659542,30.4967225 48.3273949,30.4967225 C51.8888356,30.4967225 54.7866322,33.5287098 54.7866322,37.2554848 C54.7866322,40.982945 51.8888356,44.0149324 48.3273949,44.0149324" id="Fill-19" fill="#747C81"></path>
                <path d="M51.6496458,22.8433697 C51.6496458,24.7845268 50.1625271,26.3584195 48.3279508,26.3584195 C46.4926797,26.3584195 45.005561,24.7845268 45.005561,22.8433697 C45.005561,20.9022126 46.4926797,19.3283199 48.3279508,19.3283199 C50.1625271,19.3283199 51.6496458,20.9022126 51.6496458,22.8433697" id="Fill-21" fill="#FBB041"></path>
                <path d="M48.3273949,20.184608 C46.9750898,20.184608 45.8743441,21.3775323 45.8743441,22.8431641 C45.8743441,24.3094812 46.9750898,25.5024055 48.3273949,25.5024055 C49.6797,25.5024055 50.7804458,24.3094812 50.7804458,22.8431641 C50.7804458,21.3775323 49.6797,20.184608 48.3273949,20.184608 M48.3273949,27.2153927 C46.0168017,27.2153927 44.1370559,25.2536797 44.1370559,22.8431641 C44.1370559,20.4326485 46.0168017,18.4716208 48.3273949,18.4716208 C50.6379881,18.4716208 52.5177339,20.4326485 52.5177339,22.8431641 C52.5177339,25.2536797 50.6379881,27.2153927 48.3273949,27.2153927" id="Fill-23" fill="#747C81"></path>
                <path d="M10.9987712,138.823293 L88.7653475,138.823293 C95.0835169,138.823293 103.034042,133.729554 103.034042,127.254463 C103.034042,112.501532 89.2851441,110.507614 89.2851441,110.507614 C89.2851441,110.507614 90.2962458,103.130806 82.2081271,99.1436573 C74.1207034,95.1565082 65.022178,97.7486005 65.022178,97.7486005 C65.022178,97.7486005 63.6490254,84.8922889 48.2476186,84.8922889 C32.4515,84.8922889 31.6606864,98.3460904 31.6606864,98.3460904 C31.6606864,98.3460904 23.7747881,95.3558999 16.0918051,102.732023 C8.40812712,110.108831 12.2211271,116.602423 12.2211271,116.602423 C12.2211271,116.602423 2.08509322,119.939322 2.08509322,129.941112 C2.08509322,133.426013 5.46585593,138.823293 10.9987712,138.823293" id="Fill-25" fill="#FFFFFF"></path>
                <g id="Group-29" transform="translate(0.000000, 82.637244)">
                    <mask id="mask-2" fill="white">
                        <use xlink:href="#path-1"></use>
                    </mask>
                    <g id="Clip-28"></g>
                    <path d="M48.2476881,0.19959727 C34.9755017,0.19959727 31.1069085,8.9036279 30.0047729,13.2210409 C29.3314,13.1237432 28.5364169,13.0538533 27.6434508,13.0538533 C24.3558068,13.0538533 19.4309424,14.0199781 14.6374169,18.6224322 C8.55829831,24.4589222 8.7994339,29.9363701 9.57565424,32.8422816 C5.47912881,34.8800512 -0.000277966101,39.572951 -0.000277966101,47.3033197 C-0.000277966101,51.8708288 4.18450169,58.2417708 10.9988407,58.2417708 L88.7654169,58.2417708 C92.3539593,58.2417708 96.3782136,56.8302694 99.5310441,54.4656618 C103.13418,51.7639384 105.118858,48.2660185 105.118858,44.6166705 C105.118858,36.1051797 100.891688,31.4376321 97.3448407,29.0202645 C95.1127729,27.4991319 92.8779254,26.6741573 91.3831627,26.2472808 C91.1962305,23.3941293 89.8939593,17.9975344 83.1407729,14.6681725 C79.8559085,13.049057 76.079739,12.2275083 71.9165017,12.2275083 C69.7831119,12.2275083 67.9346373,12.4488262 66.6101288,12.6735702 C66.1966542,11.2764578 65.4489254,9.39011627 64.1216373,7.50857111 C61.7679593,4.1744128 57.1036881,0.19959727 48.2476881,0.19959727 M48.2476881,2.25518193 C63.6484,2.25518193 65.0222475,15.1108084 65.0222475,15.1108084 C65.0222475,15.1108084 67.9283831,14.2830929 71.9165017,14.2830929 C74.9845525,14.2830929 78.6926203,14.7736925 82.2081966,16.5065503 C90.2963153,20.4936994 89.2852136,27.8705075 89.2852136,27.8705075 C89.2852136,27.8705075 103.034112,29.8637394 103.034112,44.6166705 C103.034112,51.0924474 95.0835864,56.1861862 88.7654169,56.1861862 L10.9988407,56.1861862 C5.46592542,56.1861862 2.0844678,50.7889061 2.0844678,47.3033197 C2.0844678,37.3022151 12.2211966,33.965316 12.2211966,33.965316 C12.2211966,33.965316 8.40819661,27.4717241 16.0918746,20.094916 C20.3350271,16.0214324 24.6393322,15.109438 27.6434508,15.109438 C30.0791288,15.109438 31.6607559,15.7089835 31.6607559,15.7089835 C31.6607559,15.7089835 32.4515695,2.25518193 48.2476881,2.25518193" id="Fill-27" fill="#747C81" mask="url(#mask-2)"></path>
                </g>
                <path d="M62.1739983,110.354885 L111.467812,110.354885 C115.473303,110.354885 120.512829,107.126246 120.512829,103.021244 C120.512829,93.6697039 111.797897,92.4062045 111.797897,92.4062045 C111.797897,92.4062045 112.438608,87.7304346 107.312219,85.2034358 C102.185829,82.6757519 96.4180322,84.3181641 96.4180322,84.3181641 C96.4180322,84.3181641 95.5473034,76.1698265 85.7851339,76.1698265 C75.7727949,76.1698265 75.2710661,84.697762 75.2710661,84.697762 C75.2710661,84.697762 70.2725407,82.8018278 65.4018797,87.4775977 C60.5319136,92.1533676 62.9488288,96.2693332 62.9488288,96.2693332 C62.9488288,96.2693332 56.5236424,98.3845299 56.5236424,104.724638 C56.5236424,106.933706 58.666761,110.354885 62.1739983,110.354885" id="Fill-30" fill="#FFFFFF"></path>
                <path d="M85.7851339,74.1139677 C77.4690831,74.1139677 74.6241,79.2220956 73.6658119,82.3006762 C73.3725576,82.2766944 73.0584559,82.2623053 72.7248966,82.2623053 C70.4990831,82.2623053 67.170439,82.9111849 63.9481169,86.0048398 C60.1969644,89.6062241 60.0023881,93.0561804 60.4082186,95.1768585 C58.0823373,96.4663953 54.4388966,99.3455842 54.4388966,104.724364 C54.4388966,107.933817 57.3818627,112.410195 62.1739983,112.410195 L111.467812,112.410195 C116.615049,112.410195 122.597575,108.309304 122.597575,103.021655 C122.597575,95.4824554 117.558744,91.9639797 113.831914,90.7792777 C113.568541,88.7134152 112.450422,85.4381836 108.2441,83.3647839 C106.055117,82.2856019 103.547168,81.7381312 100.788354,81.7381312 C99.7251339,81.7381312 98.7654559,81.8224102 97.9808966,81.9286154 C96.7543712,78.4526218 93.2867441,74.1139677 85.7851339,74.1139677 M85.7851339,76.1695524 C95.5473034,76.1695524 96.4180322,84.3185752 96.4180322,84.3185752 C96.4180322,84.3185752 98.2602525,83.7937159 100.788354,83.7937159 C102.732727,83.7937159 105.082931,84.1041092 107.312219,85.2031618 C112.438608,87.7308457 111.797897,92.4066156 111.797897,92.4066156 C111.797897,92.4066156 120.512829,93.670115 120.512829,103.021655 C120.512829,107.125972 115.473303,110.35461 111.467812,110.35461 L62.1739983,110.35461 C58.666761,110.35461 56.5236424,106.934118 56.5236424,104.724364 C56.5236424,98.384941 62.9488288,96.2697444 62.9488288,96.2697444 C62.9488288,96.2697444 60.5319136,92.1537787 65.4018797,87.4780088 C68.0918966,84.8955093 70.8201339,84.31789 72.7248966,84.31789 C74.2683034,84.31789 75.2710661,84.6974879 75.2710661,84.6974879 C75.2710661,84.6974879 75.7727949,76.1695524 85.7851339,76.1695524" id="Fill-32" fill="#747C81"></path>
            </g>
        </g>
    </g>
</svg>