<?xml version="1.0" encoding="UTF-8" standalone="no"?>
<svg width="17px" height="16px" viewBox="0 0 17 16" version="1.1" xmlns="http://www.w3.org/2000/svg" xmlns:xlink="http://www.w3.org/1999/xlink">
    <!-- Generator: sketchtool 42 (36781) - http://www.bohemiancoding.com/sketch -->
    <title>BD19D072-B1C4-4574-A544-DAC2382531B7</title>
    <desc>Created with sketchtool.</desc>
    <defs></defs>
    <g id="Page-1" stroke="none" stroke-width="1" fill="none" fill-rule="evenodd">
        <g id="alura-interna-userProfile" transform="translate(-569.000000, -1223.000000)" fill-rule="nonzero" fill="#C5D2DC">
            <g id="Group-14" transform="translate(430.000000, 1213.000000)">
                <g id="Group-13" transform="translate(15.000000, 8.000000)">
                    <g id="Group-10" transform="translate(124.000000, 0.000000)">
                        <g id="icon-linkedin" transform="translate(0.000000, 2.000000)">
                            <path d="M15.2460005,0 L0.697529434,0 C0.298941186,0 0,0.3 0,0.7 L0,15.4 C0,15.7 0.298941186,16 0.697529434,16 L15.3456475,16 C15.7442358,16 16.043177,15.7 16.043177,15.3 L16.043177,0.7 C15.9435299,0.3 15.6445887,0 15.2460005,0 Z M4.68341191,13.6 L2.39152949,13.6 L2.39152949,6 L4.78305897,6 L4.78305897,13.6 L4.68341191,13.6 Z M3.58729423,5 C2.79011774,5 2.19223536,4.3 2.19223536,3.6 C2.19223536,2.8 2.79011774,2.2 3.58729423,2.2 C4.38447073,2.2 4.9823531,2.8 4.9823531,3.6 C4.88270604,4.3 4.28482366,5 3.58729423,5 Z M13.5520004,13.6 L11.1604709,13.6 L11.1604709,9.9 C11.1604709,9 11.1604709,7.9 9.9647062,7.9 C8.76894145,7.9 8.56964733,8.9 8.56964733,9.9 L8.56964733,13.7 L6.17811784,13.7 L6.17811784,6 L8.47000027,6 L8.47000027,7 L8.47000027,7 C8.76894145,6.4 9.56611795,5.8 10.6622356,5.8 C13.0537651,5.8 13.4523534,7.4 13.4523534,9.4 L13.4523534,13.6 L13.5520004,13.6 Z" id="Shape"></path>
                        </g>
                    </g>
                </g>
            </g>
        </g>
    </g>
</svg>