<?xml version="1.0" encoding="UTF-8" standalone="no"?>
<svg width="16px" height="16px" viewBox="0 0 16 16" version="1.1" xmlns="http://www.w3.org/2000/svg" xmlns:xlink="http://www.w3.org/1999/xlink">
    <!-- Generator: sketchtool 42 (36781) - http://www.bohemiancoding.com/sketch -->
    <title>2C38C4B1-8E2E-40FC-9608-F721C3686E75</title>
    <desc>Created with sketchtool.</desc>
    <defs></defs>
    <g id="Page-1" stroke="none" stroke-width="1" fill="none" fill-rule="evenodd">
        <g id="alura-interna-userProfile" transform="translate(-445.000000, -1223.000000)" fill-rule="nonzero" fill="#C5D3DC">
            <g id="Group-14" transform="translate(430.000000, 1213.000000)">
                <g id="Group-13" transform="translate(15.000000, 8.000000)">
                    <g id="Group-11">
                        <g id="icon-certificate" transform="translate(0.000000, 2.000000)">
                            <g id="Group">
                                <path d="M12.9537367,16 L0.996441281,16 C0.398576512,16 0,15.6 0,15 L0,1 C0,0.4 0.398576512,0 0.996441281,0 L12.9537367,0 L12.9537367,2 L1.99288256,2 L1.99288256,14 L11.9572954,14 L11.9572954,13 L13.9501779,13 L13.9501779,15 C13.9501779,15.6 13.5516014,16 12.9537367,16 Z" id="Shape"></path>
                                <path d="M15.9430605,6 C15.9430605,4.3 14.6476868,3 12.9537367,3 C11.2597865,3 9.96441281,4.3 9.96441281,6 C9.96441281,6.9 10.3629893,7.7 10.9608541,8.2 L10.9608541,12 L12.9537367,10 L14.9466192,12 L14.9466192,8.2 C15.544484,7.7 15.9430605,6.9 15.9430605,6 Z" id="Shape"></path>
                                <rect id="Rectangle-path" x="3.98576512" y="5" width="3.98576512" height="2"></rect>
                                <rect id="Rectangle-path" x="3.98576512" y="9" width="4.98220641" height="2"></rect>
                            </g>
                        </g>
                    </g>
                </g>
            </g>
        </g>
    </g>
</svg>