<svg xmlns="http://www.w3.org/2000/svg" viewBox="0 0 48.4 48.4"><path d="M0 0v48.4h48.4V0H0zm24.215 1.303c1.044 0 1.738.487 1.947 1.6l4.797 14.113h14.945c1.112 0 1.807.487 2.155 1.46.07.21.07.556.14.764 0 .695-.277 1.252-.903 1.67L35.13 29.738l4.518 14.323c.348 1.114.14 1.948-.695 2.574-.347.278-.765.416-1.182.416-.485 0-.902-.14-1.46-.556l-12.094-8.762-12.098 8.762c-1.044.765-1.877.766-2.642.21-.765-.627-1.043-1.532-.696-2.575l4.52-14.32-12.167-8.83C.507 20.49.23 19.934.23 19.31c-.07-.208 0-.487.07-.765.346-.973 1.042-1.46 2.223-1.53H17.4l4.868-14.113c.21-1.042.904-1.6 1.947-1.6z" fill="#fff"/></svg>