<svg version="1" xmlns="http://www.w3.org/2000/svg" viewBox="0 0 12 17"><path fill="#6ec254" d="M10.322 14.887H1.678c-.576 0-1.056.48-1.056 1.056S1.102 17 1.678 17h8.644c.576 0 1.056-.48 1.056-1.056s-.48-1.057-1.056-1.057z"/><g fill="#6ec254"><path d="M4.928 10.668c-.262.26-.394.576-.394.94 0 .363.133.68.393.94.261.262.577.394.94.394s.68-.132.939-.394c.262-.26.394-.576.394-.94 0-.363-.132-.68-.393-.94a1.32 1.32 0 0 0-1.879 0zM9.336 1.929a3.048 3.048 0 0 0-.77-1.043A3.262 3.262 0 0 0 7.438.247 4.2 4.2 0 0 0 6.047.021c-1.024 0-1.898.291-2.603.874-.414.348-.743.78-.968 1.288-.141.31-.122.667.056.968.179.31.47.498.818.536.479.047.93-.244 1.1-.705.094-.254.235-.47.414-.648.29-.302.676-.443 1.155-.443.207 0 .414.038.601.113.188.075.348.188.48.32s.244.291.329.479c.075.188.122.395.122.62 0 .216-.047.414-.122.592a2.692 2.692 0 0 1-.329.536 7.819 7.819 0 0 1-.461.508l-.536.507c-.225.207-.413.395-.563.545-.16.16-.292.339-.395.517a2.078 2.078 0 0 0-.226.602 3.898 3.898 0 0 0-.066.798v.63c0 .235.075.451.207.62.188.254.489.414.827.414.338 0 .639-.16.827-.414.132-.169.207-.385.207-.62V8.31c0-.216.009-.404.028-.545a1.12 1.12 0 0 1 .32-.667 4.01 4.01 0 0 1 .404-.404l1.194-1.212c.235-.301.423-.62.545-.949.141-.348.206-.753.206-1.194 0-.517-.094-.996-.282-1.41z"/></g></svg>