<svg xmlns="http://www.w3.org/2000/svg" viewBox="219.3 75.1 434.7 640.3"><path d="M632.6 309.6c-4.4-24.6-20-44.9-35.1-64.5l-1.4-1.9c-10.8-14.6-23.4-27.9-35.5-40.8-11.5-12.2-23.3-24.8-33.6-38.3l-.3-.3c-11-10.9-17.9-24.4-25.2-38.6-4.4-8.6-8.9-17.5-14.5-25.7-2.9-6.4-10.5-9.8-18.6-8.2-8 1.5-13.2 7.1-13.4 14.3-.4 112.2-1.8 232.2-4.4 389.1-1.3 9-3.7 21.3-10.6 25.6-3.2 2-7.3 2.2-12.3.6-39.6-15-85.9-11.1-123.9 10.5-19.1 8.5-36.2 22.7-48.3 40-13 18.6-19.4 39.3-18.3 59.8.4 17.6 8.3 33.6 23 46.2 13 11.1 30.4 18.5 47.9 20.3 8.4 1.9 17.1 2.9 25.9 2.9 26 0 53.5-8.2 79.6-23.9 48.3-25.7 73.3-56.7 74.4-92.4 1-63.7 1.4-128.5 1.8-191.2.2-37.5.5-76.3.9-114.5.5-4.7.3-9.8.1-14.7-.5-12.7-1-24.7 9.7-31.6 17.6-7.5 31.9 8 45.8 23 4.2 4.6 8.2 8.9 12.2 12.4 17.2 17.2 29.4 40.4 36.3 68.9 0 .1.1.3.1.4 7 17.3 7.1 35.6 6.6 53-3.1 11.2 1.7 23.3 8.1 26.7 3 1.6 9.3 3 16.7-6 .2-.2.4-.5.5-.8 14.1-35.8 16.2-71.4 5.8-100.3z" fill="#586161"/></svg>
