<svg xmlns="http://www.w3.org/2000/svg" viewBox="41 43 18 14" width="18" height="14"><path d="M47.7 46h9.8c.9 0 1.6-.7 1.6-1.5s-.7-1.5-1.6-1.5h-9.8c-.9 0-1.6.7-1.6 1.5s.7 1.5 1.6 1.5zm9.7-2.9c.8 0 1.5.6 1.5 1.4s-.7 1.4-1.5 1.4c.8 0 1.5-.6 1.5-1.4s-.7-1.4-1.5-1.4zm0 5.4h-9.8c-.9 0-1.6.7-1.6 1.5s.7 1.5 1.6 1.5h9.8c.9 0 1.6-.7 1.6-1.5s-.7-1.5-1.6-1.5zm0 2.9c.8 0 1.5-.6 1.5-1.4s-.7-1.4-1.5-1.4c.8 0 1.5.6 1.5 1.4s-.7 1.4-1.5 1.4zm0 2.6h-9.8c-.9 0-1.6.7-1.6 1.5s.7 1.5 1.6 1.5h9.8c.9 0 1.6-.7 1.6-1.5s-.7-1.5-1.6-1.5zm0 2.9c.8 0 1.5-.6 1.5-1.4s-.7-1.4-1.5-1.4c.8 0 1.5.6 1.5 1.4s-.7 1.4-1.5 1.4zM42.8 43h-.2c-.9 0-1.6.7-1.6 1.5s.7 1.5 1.6 1.5h.2c.9 0 1.6-.7 1.6-1.5s-.7-1.5-1.6-1.5zm0 5.5h-.2c-.9 0-1.6.7-1.6 1.5s.7 1.5 1.6 1.5h.2c.9 0 1.6-.7 1.6-1.5s-.7-1.5-1.6-1.5zm0 5.5h-.2c-.9 0-1.6.7-1.6 1.5s.7 1.5 1.6 1.5h.2c.9 0 1.6-.7 1.6-1.5s-.7-1.5-1.6-1.5z" fill="#6ec254"/></svg>