<?xml version="1.0" encoding="utf-8"?>
<!-- Generator: Adobe Illustrator 19.2.1, SVG Export Plug-In . SVG Version: 6.00 Build 0)  -->
<svg version="1.0" id="Layer_1" xmlns="http://www.w3.org/2000/svg" xmlns:xlink="http://www.w3.org/1999/xlink" x="0px" y="0px"
	 viewBox="0 0 37 37" enable-background="new 0 0 37 37" xml:space="preserve">
<g>
	<g>
		<path fill="#FFFFFF" d="M33.816,7H3.184C1.442,7,0.03,5.433,0.03,3.5S1.442,0,3.184,0h30.633c1.741,0,3.153,1.567,3.153,3.5
			S35.558,7,33.816,7z"/>
	</g>
	<g>
		<path fill="#FFFFFF" d="M29.668,22H7.332c-1.742,0-3.153-1.567-3.153-3.5c0-1.933,1.412-3.5,3.153-3.5h22.336
			c1.741,0,3.153,1.567,3.153,3.5C32.821,20.432,31.409,22,29.668,22z"/>
	</g>
	<g>
		<path fill="#FFFFFF" d="M33.816,37H3.184c-1.742,0-3.153-1.567-3.153-3.5S1.442,30,3.184,30h30.633c1.741,0,3.153,1.567,3.153,3.5
			S35.558,37,33.816,37z"/>
	</g>
</g>
</svg>
