<?xml version="1.0" encoding="utf-8"?>
<!-- Generator: Adobe Illustrator 19.2.1, SVG Export Plug-In . SVG Version: 6.00 Build 0)  -->
<svg version="1.0" id="Layer_1" xmlns="http://www.w3.org/2000/svg" xmlns:xlink="http://www.w3.org/1999/xlink" x="0px" y="0px"
	 viewBox="0 0 37 37" enable-background="new 0 0 37 37" xml:space="preserve">
<path fill="#FFFFFF" d="M23.45,18.5L35.975,5.975c1.367-1.367,1.367-3.583,0-4.95c-1.367-1.366-3.582-1.366-4.949,0L18.5,13.55
	L5.975,1.025c-1.367-1.366-3.583-1.366-4.95,0c-1.367,1.367-1.367,3.583,0,4.95L13.55,18.5L1.025,31.025
	c-1.367,1.366-1.367,3.583,0,4.949C1.709,36.658,2.605,37,3.5,37s1.792-0.342,2.475-1.025L18.5,23.449l12.525,12.525
	C31.709,36.658,32.605,37,33.5,37s1.791-0.342,2.475-1.025c1.367-1.366,1.367-3.583,0-4.949L23.45,18.5z"/>
</svg>
