<svg
	xmlns="http://www.w3.org/2000/svg"
	xmlns:xlink="http://www.w3.org/1999/xlink" width="0" height="0" version="1.1">
	<defs>

		<symbol id="icon-footer-facebook" xmlns="http://www.w3.org/2000/svg" xmlns:xlink="http://www.w3.org/1999/xlink" width="39" height="40" viewBox="0 0 39 40">
			<defs>
				<path id="a" d="M38.71 40V0H0v40h38.71z"/>
			</defs>
			<g fill="none" fill-rule="evenodd">
				<mask id="b" fill="#fff">
					<use xlink:href="#a"/>
				</mask>
				<path fill="#8696A0" d="M24.169 20.704H21.02V32.3h-4.667V20.704h-2.218v-4.099h2.218v-2.65c0-1.9.874-4.867 4.71-4.867l3.457.013v3.98h-2.51c-.408 0-.988.21-.988 1.116v2.41h3.554l-.407 4.097zM19.356 0C8.683 0 0 8.972 0 20s8.682 20 19.355 20c10.67 0 19.355-8.972 19.355-20S30.028 0 19.356 0z" mask="url(#b)"/>
			</g>
		</symbol>

		<symbol id="icon-footer-hipsters" xmlns="http://www.w3.org/2000/svg" xmlns:xlink="http://www.w3.org/1999/xlink" width="40" height="40" viewBox="0 0 40 40">
			<defs>
				<path id="a" d="M40 0H0v40h40V0z"/>
			</defs>
			<g fill="none" fill-rule="evenodd">
				<path fill="#8696A0" d="M27.273 24.546c-.546 0-.91.362-.91.91v1.816c0 .547.364.91.91.91.545 0 .909-.363.909-.91v-1.817c0-.547-.364-.91-.91-.91"/>
				<g>
					<mask id="b" fill="#fff">
						<use xlink:href="#a"/>
					</mask>
					<path fill="#8696A0" d="M31.818 27.273c0 2.545-2 4.545-4.545 4.545s-4.545-2-4.545-4.545v-1.819A4.501 4.501 0 0 1 26 21.09c.18-.09.364-.272.364-.454v-2.454A6.324 6.324 0 0 0 20 11.818a6.323 6.323 0 0 0-6.363 6.364v2.454c0 .182.09.364.363.454a4.5 4.5 0 0 1 3.273 4.364v1.819c0 2.545-2 4.545-4.545 4.545-2.547 0-4.547-2-4.547-4.545v-1.819c0-1.364.637-2.636 1.637-3.454.09-.091.182-.182.182-.364v-3.454a9.97 9.97 0 0 1 10-10 9.97 9.97 0 0 1 10 10v3.454c0 .092.092.273.18.364 1 .818 1.638 2.09 1.638 3.454v1.819zM20 0C8.909 0 0 8.909 0 20c0 11.09 8.909 20 20 20 11.092 0 20-8.91 20-20C40 8.909 31.092 0 20 0z" mask="url(#b)"/>
				</g>
				<path fill="#8696A0" d="M12.727 24.546c-.545 0-.91.362-.91.91v1.816c0 .547.365.91.91.91s.91-.363.91-.91v-1.817c0-.547-.365-.91-.91-.91"/>
			</g>
		</symbol>

		<symbol id="icon-footer-twitter" xmlns="http://www.w3.org/2000/svg" xmlns:xlink="http://www.w3.org/1999/xlink" width="39" height="40" viewBox="0 0 39 40">
			<defs>
				<path id="a" d="M19.355 0H38.71v40H0V0z"/>
			</defs>
			<g fill="none" fill-rule="evenodd">
				<mask id="b" fill="#fff">
					<use xlink:href="#a"/>
				</mask>
				<path fill="#8696A0" d="M27.989 15.423c.01.197.013.397.013.597 0 6.084-4.479 13.096-12.675 13.096-2.516 0-4.858-.76-6.828-2.067a8.758 8.758 0 0 0 6.595-1.907c-1.949-.035-3.595-1.367-4.162-3.197a4.31 4.31 0 0 0 2.01-.077c-2.037-.421-3.572-2.281-3.572-4.513l.001-.059c.6.344 1.288.552 2.017.576a4.641 4.641 0 0 1-1.98-3.83c0-.845.218-1.637.602-2.317 2.196 2.786 5.48 4.618 9.182 4.811a4.75 4.75 0 0 1-.115-1.05c0-2.54 1.993-4.602 4.454-4.602 1.281 0 2.437.559 3.252 1.453a8.732 8.732 0 0 0 2.83-1.117 4.597 4.597 0 0 1-1.962 2.547 8.618 8.618 0 0 0 2.559-.724 9.124 9.124 0 0 1-2.221 2.38M19.355 0C8.683 0 .001 8.972.001 20s8.682 20 19.354 20c10.671 0 19.355-8.972 19.355-20S30.028 0 19.355 0" mask="url(#b)"/>
			</g>
		</symbol>

		<symbol id="icon-footer-youtube" viewBox="0 0 40 40">
			<defs>
				<path id="a" d="M0 0h40v40H0V0z"/>
			</defs>
			<g fill="none" fill-rule="evenodd">
				<path fill="#8696A0" d="M16.356 24.383l8.979-4.655-8.98-4.684v9.34z"/>
				<g>
					<mask id="b" fill="#fff">
						<use xlink:href="#a"/>
					</mask>
					<path fill="#8696A0" d="M33.627 26.676c-.346 1.502-1.575 2.609-3.053 2.774-3.502.392-7.046.394-10.575.392-3.529.002-7.074 0-10.577-.392-1.478-.165-2.706-1.272-3.05-2.774-.493-2.14-.493-4.474-.493-6.676s.006-4.537.498-6.676c.345-1.502 1.573-2.61 3.051-2.775 3.503-.391 7.047-.393 10.577-.391 3.528-.002 7.073 0 10.574.39 1.48.167 2.708 1.274 3.053 2.776.493 2.139.488 4.474.488 6.676s0 4.537-.493 6.676M20 0C8.955 0 0 8.954 0 20s8.955 20 20 20 20-8.954 20-20S31.045 0 20 0" mask="url(#b)"/>
				</g>
			</g>
		</symbol>

	</defs>
</svg>